<?xml version="1.0" encoding="utf-8"?>
<!-- Generator: Adobe Illustrator 22.0.1, SVG Export Plug-In . SVG Version: 6.00 Build 0)  -->
<svg version="1.1" xmlns="http://www.w3.org/2000/svg" xmlns:xlink="http://www.w3.org/1999/xlink" x="0px" y="0px"
	 viewBox="0 0 1000 1000" xml:space="preserve">
<style type="text/css">
	<!--.st1{fill:#8D8C91;}-->
</style>
<g id="图层_2">
	<path class="st1" d="M663.2,442.6c28.1-44.8,35.7-89.1,15.8-120.9c-18.6-29.8-57.9-42.8-106.1-39.6c-22.9-42.6-54.6-69-89.8-69
		c-35.6,0-67.8,27.1-90.7,70.6c-49.1-2.8-88.9,10.8-107.3,41.3c-19.3,32.1-11,76.3,17.9,120.6c-28.1,44.8-35.7,89.1-15.8,120.9
		c18.6,29.8,57.9,42.8,106.1,39.6c22.9,42.6,54.6,69,89.8,69c35.6,0,67.8-27.1,90.7-70.6c49.1,2.8,88.9-10.8,107.3-41.3
		C700.4,531.2,692.1,486.9,663.2,442.6z M658.7,326.8c15.9,25.5,11.3,60.5-9,96.8c-12.8-16.3-28.2-32.4-46-47.6
		c-5.3-31.3-14.1-59.8-25.5-83.9C614.8,292.2,644.1,303.5,658.7,326.8z M538.8,533.2c-18.1,11.3-36.5,20.8-54.7,28.5
		c-18.3-7.3-36.8-16.5-55.1-27.6c-16.9-10.2-32.6-21.3-46.7-32.9c-2.7-18.1-4.1-37.3-4.1-57c0-26.6,2.6-52,7.3-75.4
		c10.9-8.6,22.7-16.9,35.1-24.7c20.4-12.7,41.1-23.2,61.4-31.3c20.5,7.7,41.3,17.8,61.9,30.2c19,11.5,36.5,24.1,52,37.3
		c3.4,20.1,5.2,41.5,5.2,63.8c0,14.7-0.8,29-2.3,42.9C581.5,503.5,561.3,519.1,538.8,533.2z M593.8,519.5
		c-4.7,23.5-11.6,45-20.2,63.6c-18.9-1.1-39.5-4.9-60.9-11.3c12.4-6.1,24.9-13,37.2-20.7C565.7,541.2,580.4,530.6,593.8,519.5z
		 M455.8,572.2c-17.3,5.5-34,9.3-49.8,11.3c-7.1-15.2-13-32.4-17.6-51.1c9.5,6.8,19.4,13.4,29.8,19.7
		C430.7,559.6,443.2,566.3,455.8,572.2z M358.7,479.9c-14.8-14.7-27.3-29.8-37.1-44.9c10.6-15.1,23.7-30.2,39-44.7
		c-2.3,17.3-3.5,35.4-3.5,53.9C357.2,456.3,357.7,468.2,358.7,479.9z M388.2,356.5c5.6-23,13.2-43.8,22.6-61.5
		c18.8,2.1,39,6.6,59.8,13.7c-18,7.9-36.2,17.4-54.2,28.6C406.6,343.4,397.2,349.9,388.2,356.5z M593.6,367.8
		c-14-11.2-29.2-21.8-45.5-31.6c-18.1-10.9-36.5-20.1-54.7-27.7c26-9.3,51-14.6,73.7-16C578.7,313.6,587.8,339.2,593.6,367.8z
		 M605.5,388.9c15.3,14,28.4,28.7,39,43.4c-9.6,15.4-22,31-36.7,46c0.9-11.1,1.4-22.5,1.4-34.1C609.2,425.1,607.9,406.6,605.5,388.9
		z M489.7,233.2c27.5,0,52.6,18.8,72.1,50c-25,2.9-52.1,9.8-79.7,20.8c-22.8-8.6-45.1-14.5-66.3-17.7
		C435.4,253.2,461.3,233.2,489.7,233.2z M305.7,329.8c14.4-23.9,44.2-35.8,81.8-36c-11.3,24-19.9,52.4-25,83.5
		c-17.9,15.8-33.4,32.4-46.1,49.2C295.4,390.5,290.2,355.5,305.7,329.8z M300.8,550.5c-15.8-25.2-11.4-59.8,8.5-95.8
		c14.1,19.7,32.1,39.2,53.5,57.6c4.5,26.7,11.5,51.2,20.6,72.8C345.7,585.5,315.6,574.2,300.8,550.5z M489.7,655.2
		c-28,0-53.5-19.5-73.1-51.7c21.6-3.5,44.5-9.9,67.8-19.1c27.2,10.3,53.8,16.7,78.3,19.3C543.1,635.7,517.6,655.2,489.7,655.2z
		 M667.3,547.4c-14.6,24.3-45.2,36.1-83.6,36c8.9-21.5,15.7-45.9,20.1-72.3c21.5-18.9,39.5-39,53.4-59.3
		C677.7,487.4,682.6,521.9,667.3,547.4z"/>
	<path class="st1" d="M570.3,442.9c-2.6-4-5.8-7.3-9.5-10c-3.8-2.7-8.7-5.8-14.7-9.2c-5.2-3-9.3-5.5-12.3-7.6
		c-3-2.1-5.6-4.6-7.6-7.4c-2.1-2.8-3.1-6-3.1-9.6c0-4.6,1.3-8.4,4-11.4c2.7-3,5.9-4.5,9.7-4.5c4.4,0,8.3,1.2,11.8,3.6
		c3.4,2.4,6.3,5.4,8.6,9.1c2.5,3.8,4.4,7.9,5.6,12.6h5.8v-27.4h-3.6c-0.2,0.1-1.2,0.8-2.9,2c-1.7,1.4-3.4,3.4-5.1,5.9
		c-2.1-1.9-4.2-3.5-6.4-4.6c-5.6-3.2-11.2-4.8-16.7-4.8c-7.7,0-14.2,1.1-19.5,3.4c-5.3,2.3-9.3,5.3-11.9,9.1c-2.6,3.8-4,8.1-4,12.8
		c0,6,1.4,11.1,4.2,15.5c2.8,4.4,6.2,8,10.1,10.9c3.9,2.9,9.1,6.1,15.4,9.7c5,2.9,8.9,5.3,11.7,7.2c2.8,1.9,5.1,4.1,7,6.6
		c1.9,2.5,2.8,5.3,2.8,8.5c0,5.5-1.6,9.9-4.9,13.1c-3.3,3.3-7.6,4.9-13.1,4.9c-9.3,0-16.9-4.2-22.8-12.6c-2.6-3.8-4.6-8-6.1-12.7
		H497v26.7c-1.1-0.3-2.2-0.9-3.1-2.2c-4.9-6.8-42.1-98.1-42.1-98.1h-4.3l-39.7,96l-11.5,4.3v2.2h26.7v-2.2l-10.8-4.3l9.5-23.1h34.5
		l7.4,17.3c1.5,3.7,3.9,6.6,7.1,8.9c3.2,2.3,7.3,3.4,12.3,3.4H497h3.1c0.2-0.1,1-1.4,3.4-3.5c2-1.7,3.7-3.7,5.1-5.9
		c1.8,1.8,4.1,3.4,6.8,4.8c6,3.1,12.4,4.6,19.2,4.6c8.6,0,15.8-1.3,21.8-3.8c6-2.5,10.4-5.9,13.4-10.2c3-4.3,4.5-9,4.5-14.2
		S572.9,446.9,570.3,442.9z M423,451.6l15.7-38l15.9,38H423z"/>
	<g>
		<path class="st1" d="M-318.8,1146.6c28.1-44.8,35.7-89.1,15.8-120.9c-18.6-29.8-57.9-42.8-106.1-39.6c-22.9-42.6-54.6-69-89.8-69
			c-35.6,0-67.8,27.1-90.7,70.6c-49.1-2.8-88.9,10.8-107.3,41.3c-19.3,32.1-11,76.3,17.9,120.6c-28.1,44.8-35.7,89.1-15.8,120.9
			c18.6,29.8,57.9,42.8,106.1,39.6c22.9,42.6,54.6,69,89.8,69c35.6,0,67.8-27.1,90.7-70.6c49.1,2.8,88.9-10.8,107.3-41.3
			C-281.6,1235.2-289.9,1190.9-318.8,1146.6z M-323.3,1030.8c15.9,25.5,11.3,60.5-9,96.8c-12.8-16.3-28.2-32.4-46-47.6
			c-5.3-31.3-14.1-59.8-25.5-83.9C-367.2,996.2-337.9,1007.5-323.3,1030.8z M-443.2,1237.2c-18.1,11.3-36.5,20.8-54.7,28.5
			c-18.3-7.3-36.8-16.5-55.1-27.6c-16.9-10.2-32.6-21.3-46.7-32.9c-2.7-18.1-4.1-37.3-4.1-57c0-26.6,2.6-52,7.3-75.4
			c10.9-8.6,22.7-16.9,35.1-24.7c20.4-12.7,41.1-23.2,61.4-31.3c20.5,7.7,41.3,17.8,61.9,30.2c19,11.5,36.5,24.1,52,37.3
			c3.4,20.1,5.2,41.5,5.2,63.8c0,14.7-0.8,29-2.3,42.9C-400.5,1207.5-420.7,1223.1-443.2,1237.2z M-388.2,1223.5
			c-4.7,23.5-11.6,45-20.2,63.6c-18.9-1.1-39.5-4.9-60.9-11.3c12.4-6.1,24.9-13,37.2-20.7C-416.3,1245.2-401.6,1234.6-388.2,1223.5z
			 M-526.2,1276.2c-17.3,5.5-34,9.3-49.8,11.3c-7.1-15.2-13-32.4-17.6-51.1c9.5,6.8,19.4,13.4,29.8,19.7
			C-551.3,1263.6-538.8,1270.3-526.2,1276.2z M-623.3,1183.9c-14.8-14.7-27.3-29.8-37.1-44.9c10.6-15.1,23.7-30.2,39-44.7
			c-2.3,17.3-3.5,35.4-3.5,53.9C-624.8,1160.3-624.3,1172.2-623.3,1183.9z M-593.8,1060.5c5.6-23,13.2-43.8,22.6-61.5
			c18.8,2.1,39,6.6,59.8,13.7c-18,7.9-36.2,17.4-54.2,28.6C-575.4,1047.4-584.8,1053.9-593.8,1060.5z M-388.4,1071.8
			c-14-11.2-29.2-21.8-45.5-31.6c-18.1-10.9-36.5-20.1-54.7-27.7c26-9.3,51-14.6,73.7-16C-403.3,1017.6-394.2,1043.2-388.4,1071.8z
			 M-376.5,1092.9c15.3,14,28.4,28.7,39,43.4c-9.6,15.4-22,31-36.7,46c0.9-11.1,1.4-22.5,1.4-34.1
			C-372.8,1129.1-374.1,1110.6-376.5,1092.9z M-492.3,937.2c27.5,0,52.6,18.8,72.1,50c-25,2.9-52.1,9.8-79.7,20.8
			c-22.8-8.6-45.1-14.5-66.3-17.7C-546.6,957.2-520.7,937.2-492.3,937.2z M-676.3,1033.8c14.4-23.9,44.2-35.8,81.8-36
			c-11.3,24-19.9,52.4-25,83.5c-17.9,15.8-33.4,32.4-46.1,49.2C-686.6,1094.5-691.8,1059.5-676.3,1033.8z M-681.2,1254.5
			c-15.8-25.2-11.4-59.8,8.5-95.8c14.1,19.7,32.1,39.2,53.5,57.6c4.5,26.7,11.5,51.2,20.6,72.8
			C-636.3,1289.5-666.4,1278.2-681.2,1254.5z M-492.3,1359.2c-28,0-53.5-19.5-73.1-51.7c21.6-3.5,44.5-9.9,67.8-19.1
			c27.2,10.3,53.8,16.7,78.3,19.3C-438.9,1339.7-464.4,1359.2-492.3,1359.2z M-314.7,1251.4c-14.6,24.3-45.2,36.1-83.6,36
			c8.9-21.5,15.7-45.9,20.1-72.3c21.5-18.9,39.5-39,53.4-59.3C-304.3,1191.4-299.4,1225.9-314.7,1251.4z"/>
		<path class="st1" d="M-411.7,1146.9c-2.6-4-5.8-7.3-9.5-10c-3.8-2.7-8.7-5.8-14.7-9.2c-5.2-3-9.3-5.5-12.3-7.6
			c-3-2.1-5.6-4.6-7.6-7.4c-2.1-2.8-3.1-6-3.1-9.6c0-4.6,1.3-8.4,4-11.4c2.7-3,5.9-4.5,9.7-4.5c4.4,0,8.3,1.2,11.8,3.6
			c3.4,2.4,6.3,5.4,8.6,9.1c2.5,3.8,4.4,7.9,5.6,12.6h5.8v-27.4h-3.6c-0.2,0.1-1.2,0.8-2.9,2c-1.7,1.4-3.4,3.4-5.1,5.9
			c-2.1-1.9-4.2-3.5-6.4-4.6c-5.6-3.2-11.2-4.8-16.7-4.8c-7.7,0-14.2,1.1-19.5,3.4c-5.3,2.3-9.3,5.3-11.9,9.1c-2.6,3.8-4,8.1-4,12.8
			c0,6,1.4,11.1,4.2,15.5c2.8,4.4,6.2,8,10.1,10.9c3.9,2.9,9.1,6.1,15.4,9.7c5,2.9,8.9,5.3,11.7,7.2c2.8,1.9,5.1,4.1,7,6.6
			c1.9,2.5,2.8,5.3,2.8,8.5c0,5.5-1.6,9.9-4.9,13.1c-3.3,3.3-7.6,4.9-13.1,4.9c-9.3,0-16.9-4.2-22.8-12.6c-2.6-3.8-4.6-8-6.1-12.7
			h-5.8v26.7c-1.1-0.3-2.2-0.9-3.1-2.2c-4.9-6.8-42.1-98.1-42.1-98.1h-4.3l-39.7,96l-11.5,4.3v2.2h26.7v-2.2l-10.8-4.3l9.5-23.1
			h34.5l7.4,17.3c1.5,3.7,3.9,6.6,7.1,8.9c3.2,2.3,7.3,3.4,12.3,3.4h14.2h3.1c0.2-0.1,1-1.4,3.4-3.5c2-1.7,3.7-3.7,5.1-5.9
			c1.8,1.8,4.1,3.4,6.8,4.8c6,3.1,12.4,4.6,19.2,4.6c8.6,0,15.8-1.3,21.8-3.8c6-2.5,10.4-5.9,13.4-10.2c3-4.3,4.5-9,4.5-14.2
			S-409.1,1150.9-411.7,1146.9z M-559,1155.6l15.7-38l15.9,38H-559z"/>
		<g>
			<path class="st1" d="M-1233.6,1069.4c2.9-3,6.2-5.3,10.1-7c3.9-1.6,8-2.4,12.5-2.4c5.2,0,9.7,1.5,13.7,4.4
				c4,2.9,7.6,7.5,10.8,13.7l5.6-3.8c-1.6-2.6-3.5-5.1-5.7-7.5c-2.2-2.4-4.7-4.5-7.6-6.3c-2.9-1.8-6-3.3-9.4-4.4
				c-3.4-1.1-7.2-1.7-11.3-1.7c-4.3,0-8.4,0.5-12.2,1.5c-3.8,1-7.3,2.4-10.5,4.2c-3.2,1.8-6,3.9-8.6,6.4c-2.5,2.5-4.7,5.3-6.4,8.3
				c-1.7,3-3.1,6.2-4,9.6c-0.9,3.4-1.4,6.9-1.4,10.5c0,3.6,0.5,7.1,1.4,10.5c0.9,3.4,2.2,6.6,3.9,9.5c1.7,3,3.8,5.7,6.3,8.1
				c2.5,2.5,5.3,4.6,8.5,6.3c3.1,1.7,6.6,3.1,10.4,4.1c3.8,1,7.8,1.5,12,1.5c4.4,0,8.4-0.6,12-1.7c3.6-1.1,6.8-2.6,9.6-4.4
				c2.8-1.8,5.3-3.9,7.5-6.3c2.2-2.4,4-4.9,5.6-7.5l-5.4-3.5c-1.1,2.2-2.5,4.3-4.2,6.4c-1.7,2.1-3.6,4-5.8,5.7c-2.2,1.7-4.5,3-7,4.1
				c-2.5,1-5.1,1.6-7.8,1.6c-4.5,0-8.7-0.8-12.6-2.3c-3.9-1.6-7.2-3.8-10.1-6.8c-2.8-3-5.1-6.6-6.7-10.9c-1.6-4.3-2.4-9.1-2.4-14.5
				c0-5.4,0.8-10.3,2.5-14.6C-1238.7,1076.1-1236.5,1072.4-1233.6,1069.4z"/>
			<path class="st1" d="M-1162.4,1125.7c2.8,2.7,6.1,4.9,9.9,6.5c3.8,1.6,8,2.4,12.6,2.4s8.7-0.9,12.5-2.6c3.8-1.7,7.1-4.1,9.9-7
				c2.8-3,5-6.4,6.5-10.4c1.6-4,2.3-8.2,2.3-12.7c0-4.1-0.8-7.9-2.3-11.4c-1.6-3.6-3.7-6.6-6.5-9.3c-2.8-2.6-6.1-4.7-9.9-6.2
				c-3.8-1.5-8-2.3-12.5-2.3s-8.7,0.8-12.6,2.5c-3.8,1.7-7.2,3.9-9.9,6.8c-2.8,2.9-5,6.2-6.5,10.1c-1.6,3.8-2.3,8-2.3,12.3
				c0,4.2,0.8,8.1,2.3,11.7C-1167.3,1119.7-1165.2,1122.9-1162.4,1125.7z M-1156.8,1090.5c0.8-2.7,2-5,3.4-7c1.4-2,3-3.6,4.9-4.7
				c1.8-1.1,3.8-1.7,5.7-1.7c3.9,0,7.1,0.8,9.8,2.4c2.7,1.6,4.8,3.8,6.5,6.6c1.7,2.8,2.9,6.1,3.6,9.8c0.7,3.7,1.1,7.8,1.1,12.1
				c0,3-0.4,5.8-1.2,8.5c-0.8,2.7-1.9,5-3.3,7c-1.4,2-3.1,3.6-5,4.8c-1.9,1.2-4.1,1.8-6.4,1.8c-3.2,0-6.1-0.8-8.6-2.5
				c-2.5-1.6-4.7-3.9-6.4-6.7c-1.7-2.8-3.1-6.1-4-9.9c-0.9-3.8-1.4-7.8-1.4-12.2C-1158,1095.9-1157.6,1093.1-1156.8,1090.5z"/>
			<path class="st1" d="M-1086.6,1092.1c0.8-1.3,1.6-2.5,2.4-3.7c0.8-1.1,1.6-2.1,2.4-2.9c0.8-0.8,1.6-1.5,2.4-1.9
				c0.8-0.5,1.6-0.7,2.3-0.7c1,0,1.8,0.1,2.5,0.4c0.7,0.3,1.3,0.6,2,0.9c0.6,0.4,1.4,0.7,2.2,0.9c0.8,0.3,1.9,0.4,3.2,0.4
				c2.1,0,3.8-0.5,5-1.5c1.2-1,1.8-2.4,1.8-4.3c0-1-0.2-1.9-0.7-2.7c-0.5-0.9-1.1-1.6-2-2.3c-0.8-0.6-1.8-1.2-2.9-1.5
				s-2.3-0.6-3.6-0.6c-1.6,0-3.1,0.3-4.7,1c-1.5,0.7-3,1.6-4.4,2.7c-1.4,1.1-2.8,2.5-4.1,4c-1.3,1.5-2.6,3.1-3.7,4.8v-11.2h-11.7
				v59.3h11.7V1092.1z"/>
			<path class="st1" d="M-1038.7,1132.1c1.2,0.6,2.4,1,3.7,1.4c1.3,0.3,2.6,0.6,4,0.8c1.4,0.2,2.9,0.2,4.6,0.2c4.5,0,8.5-0.8,12-2.5
				c3.6-1.7,6.6-4.1,9.1-7.1c2.5-3,4.4-6.6,5.8-10.7c1.4-4.1,2-8.7,2-13.6c0-3.8-0.6-7.4-1.7-10.8c-1.1-3.4-2.7-6.3-4.7-8.9
				c-2-2.5-4.5-4.5-7.3-6c-2.9-1.5-6.1-2.2-9.6-2.2c-2.5,0-4.9,0.4-7,1.2c-2.1,0.8-4.1,1.9-5.8,3.2c-1.8,1.3-3.4,2.7-4.8,4.3
				c-1.5,1.6-2.8,3.1-3.9,4.6v-12.1h-12.5v84.4h0.1v29.4c-1.8-1.7-3.8-3-6-4c-2.2-1-4.7-1.5-7.6-1.5s-5.6,0.4-8.3,1.2
				c-2.6,0.8-5.1,1.9-7.4,3.4c-2.3,1.5-4.4,3.2-6.3,5.2c-1.9,2-3.5,4.2-4.9,6.5c-1.3,2.3-2.4,4.8-3.1,7.4c-0.8,2.6-1.1,5.3-1.1,8
				c0,4.1,0.7,7.9,2,11.5c1.3,3.6,3.1,6.8,5.4,9.6s4.9,5,8,6.6c3,1.6,6.3,2.4,9.8,2.4c1.7,0,3.4-0.2,5.1-0.5
				c1.7-0.3,3.5-0.8,5.2-1.4c1.7-0.6,3.4-1.3,4.9-2.2c1.6-0.9,3.1-1.9,4.4-3v7.1h12.5v-91h-0.1v-22.8
				C-1041.1,1130.9-1039.9,1131.6-1038.7,1132.1z M-1042.3,1090.3c0.9-1.3,2-2.5,3.1-3.6c1.2-1.2,2.5-2.2,3.8-3.1s2.9-1.6,4.4-2.1
				c1.6-0.5,3.2-0.8,4.9-0.8c2.2,0,4.3,0.5,6.2,1.6c1.9,1.1,3.5,2.7,4.9,4.9c1.4,2.2,2.5,4.9,3.2,8.1s1.2,7.1,1.2,11.5
				c0,3.5-0.4,6.7-1.2,9.5c-0.8,2.9-2,5.3-3.4,7.4c-1.5,2.1-3.1,3.7-5.1,4.8c-1.9,1.1-4,1.7-6.2,1.7c-2.3,0-4.5-0.3-6.4-1
				c-2-0.7-3.6-1.6-5-2.8c-1.4-1.2-2.5-2.5-3.3-4.1c-0.8-1.6-1.2-3.3-1.2-5V1090.3z M-1054.8,1231.4c-0.7,0.8-1.6,1.6-2.6,2.3
				c-1,0.7-2.1,1.4-3.2,1.9c-1.1,0.6-2.3,1-3.5,1.3c-1.2,0.3-2.5,0.5-3.7,0.5c-2.6,0-5-0.7-7.3-2.1c-2.3-1.4-4.2-3.4-5.9-5.8
				c-1.7-2.4-3-5.3-4-8.6c-1-3.3-1.5-6.8-1.5-10.6c0-3.5,0.4-6.7,1.3-9.6c0.9-2.9,2.1-5.4,3.6-7.5c1.5-2.1,3.3-3.7,5.4-4.9
				c2-1.2,4.2-1.8,6.6-1.8c1.8,0,3.6,0.4,5.4,1.1c1.8,0.8,3.4,1.8,4.8,3.2c1.4,1.4,2.5,3,3.4,4.9c0.9,1.9,1.3,4.1,1.3,6.4V1231.4z"
				/>
			<path class="st1" d="M-936.2,1124.9c2.8-3,5-6.4,6.5-10.4c1.6-4,2.3-8.2,2.3-12.7c0-4.1-0.8-7.9-2.3-11.4
				c-1.6-3.6-3.7-6.6-6.5-9.3c-2.8-2.6-6.1-4.7-9.9-6.2c-3.8-1.5-8-2.3-12.5-2.3s-8.7,0.8-12.6,2.5c-3.8,1.7-7.2,3.9-9.9,6.8
				c-2.8,2.9-5,6.2-6.5,10.1c-1.6,3.8-2.3,8-2.3,12.3c0,4.2,0.8,8.1,2.3,11.7c1.6,3.7,3.7,6.9,6.5,9.6c2.8,2.7,6.1,4.9,9.9,6.5
				c3.8,1.6,8,2.4,12.6,2.4s8.7-0.9,12.5-2.6C-942.3,1130.2-939,1127.9-936.2,1124.9z M-950,1128.3c-1.9,1.2-4.1,1.8-6.4,1.8
				c-3.2,0-6.1-0.8-8.6-2.5c-2.5-1.6-4.7-3.9-6.4-6.7c-1.7-2.8-3.1-6.1-4-9.9c-0.9-3.8-1.4-7.8-1.4-12.2c0-3,0.4-5.8,1.3-8.5
				c0.8-2.7,2-5,3.4-7c1.4-2,3-3.6,4.9-4.7c1.8-1.1,3.8-1.7,5.7-1.7c3.9,0,7.1,0.8,9.8,2.4c2.7,1.6,4.8,3.8,6.5,6.6
				c1.7,2.8,2.9,6.1,3.6,9.8c0.7,3.7,1.1,7.8,1.1,12.1c0,3-0.4,5.8-1.2,8.5c-0.8,2.7-1.9,5-3.3,7
				C-946.4,1125.5-948.1,1127.1-950,1128.3z"/>
			<path class="st1" d="M-893.4,1083.3c0.7,0.3,1.3,0.6,2,0.9c0.6,0.4,1.4,0.7,2.2,0.9c0.8,0.3,1.9,0.4,3.2,0.4c2.1,0,3.8-0.5,5-1.5
				c1.2-1,1.8-2.4,1.8-4.3c0-1-0.2-1.9-0.7-2.7c-0.5-0.9-1.1-1.6-2-2.3c-0.8-0.6-1.8-1.2-2.9-1.5s-2.3-0.6-3.6-0.6
				c-1.6,0-3.1,0.3-4.7,1c-1.5,0.7-3,1.6-4.4,2.7c-1.4,1.1-2.8,2.5-4.1,4c-1.3,1.5-2.6,3.1-3.7,4.8v-11.2h-11.7v59.3h11.7v-41.1
				c0.8-1.3,1.6-2.5,2.4-3.7c0.8-1.1,1.6-2.1,2.4-2.9c0.8-0.8,1.6-1.5,2.4-1.9c0.8-0.5,1.6-0.7,2.3-0.7
				C-894.9,1082.9-894,1083-893.4,1083.3z"/>
			<path class="st1" d="M-833.8,1077c-1.7-1.4-3.8-2.4-6.5-3.2c-2.7-0.8-6-1.1-9.9-1.1c-3.2,0-6.3,0.4-9.2,1.1
				c-2.9,0.7-5.5,1.7-7.6,2.9c-2.2,1.2-3.9,2.7-5.2,4.4c-1.3,1.7-1.9,3.5-1.9,5.5c0,1,0.1,1.9,0.4,2.8c0.3,0.8,0.7,1.6,1.3,2.2
				c0.6,0.6,1.2,1.1,2,1.5c0.8,0.4,1.6,0.5,2.5,0.5c1.2,0,2.1-0.2,2.9-0.7c0.8-0.4,1.4-1,1.8-1.7c0.4-0.7,0.7-1.6,0.9-2.5
				c0.2-1,0.2-2,0.2-3c0-1.1,0.1-2.2,0.4-3.3c0.3-1.1,0.7-2.1,1.5-2.9c0.7-0.8,1.7-1.5,3-2c1.3-0.5,2.9-0.8,4.9-0.8
				c1.8,0,3.4,0.2,4.8,0.7c1.4,0.5,2.6,1.3,3.6,2.5c1,1.1,1.8,2.6,2.3,4.5c0.5,1.9,0.8,4.1,0.8,6.8v3.7c-2.7,0.7-5.4,1.4-8.1,2.2
				c-2.8,0.8-5.5,1.7-8.1,2.7c-2.6,1-5.1,2.1-7.4,3.4c-2.3,1.3-4.4,2.7-6.1,4.3c-1.7,1.6-3.1,3.5-4.1,5.5c-1,2-1.5,4.3-1.5,6.9
				c0,2.1,0.3,4.1,1,5.9c0.7,1.8,1.7,3.4,3,4.7s2.9,2.4,4.8,3.1c1.9,0.8,4,1.1,6.3,1.1c2.5,0,4.7-0.3,6.6-0.9
				c1.9-0.6,3.6-1.3,5.2-2.2c1.6-0.9,3-1.9,4.4-3c1.3-1.1,2.7-2.2,4.1-3.3v8.1h11.8v-44.8c0-2.4-0.4-4.5-1.1-6.5
				C-831,1080-832.2,1078.3-833.8,1077z M-841,1120.8c-1.2,0.9-2.3,1.7-3.5,2.5c-1.1,0.8-2.2,1.5-3.4,2.1c-1.1,0.6-2.3,1.1-3.5,1.4
				c-1.2,0.4-2.5,0.5-3.8,0.5c-1.3,0-2.5-0.3-3.6-0.9c-1.2-0.6-2.2-1.3-3.1-2.3c-0.9-1-1.6-2.1-2.1-3.4c-0.5-1.3-0.8-2.7-0.8-4.1
				c0-1.4,0.3-2.7,1-4c0.7-1.3,1.6-2.5,2.8-3.6c1.2-1.1,2.6-2.2,4.2-3.2c1.6-1,3.3-2,5-2.8c1.7-0.9,3.5-1.6,5.4-2.3
				c1.8-0.7,3.6-1.3,5.3-1.9V1120.8z"/>
			<path class="st1" d="M-785.9,1123.7c-0.8,1-1.8,1.8-2.8,2.4c-1.1,0.6-2.3,1-3.6,1c-0.9,0-1.7-0.2-2.5-0.5c-0.8-0.3-1.5-0.8-2-1.4
				c-0.6-0.6-1-1.2-1.4-2c-0.3-0.8-0.5-1.6-0.5-2.5v-41.8h13.3v-5h-13.3v-20.3h-3.4c-0.6,3-1.3,5.9-2,8.6c-0.8,2.7-1.8,5.1-3.2,7.1
				c-1.4,2-3.1,3.7-5.2,4.9c-2.1,1.2-4.9,1.8-8.2,1.8v2.9h10.3v41.8c0,2.1,0.2,3.9,0.7,5.6c0.5,1.7,1.2,3.1,2.1,4.4
				c1,1.2,2.2,2.2,3.6,2.8c1.5,0.7,3.2,1,5.2,1c3.8,0,7.1-0.8,9.7-2.4c2.6-1.6,4.7-3.7,6.3-6.5L-785.9,1123.7z"/>
			<path class="st1" d="M-771.2,1126.1c2.6,2.6,5.7,4.6,9.2,6.2c3.5,1.5,7.3,2.3,11.3,2.3c3.1,0,6.1-0.6,9.1-1.7
				c3-1.2,5.8-2.7,8.3-4.7c2.5-2,4.7-4.3,6.6-7c1.9-2.7,3.3-5.5,4.1-8.6l-3.4-1.5c-0.6,1.8-1.5,3.6-2.8,5.4c-1.3,1.7-3,3.3-4.9,4.6
				c-1.9,1.3-4.1,2.4-6.4,3.3c-2.4,0.8-4.8,1.2-7.4,1.2c-3.1,0-5.9-0.7-8.5-2.1c-2.6-1.4-4.8-3.3-6.6-5.8c-1.8-2.5-3.3-5.4-4.3-8.8
				c-1-3.4-1.5-7.1-1.5-11.1h44.2c0-3.3-0.6-6.5-1.9-9.5c-1.3-3-3.1-5.7-5.4-8c-2.3-2.3-5.1-4.1-8.3-5.5c-3.2-1.4-6.8-2-10.7-2
				c-4.4,0-8.4,0.8-12,2.5c-3.6,1.7-6.7,4-9.2,6.9c-2.5,2.9-4.5,6.4-5.9,10.5c-1.4,4.1-2.1,8.5-2.1,13.2c0,4,0.8,7.7,2.3,11.2
				C-775.9,1120.4-773.8,1123.5-771.2,1126.1z M-766.8,1086.6c0.8-1.9,1.9-3.6,3.1-5c1.3-1.4,2.7-2.5,4.4-3.3
				c1.6-0.8,3.3-1.2,5.1-1.2c2.1,0,4.1,0.4,6,1.2c1.9,0.8,3.5,1.9,4.9,3.3c1.4,1.4,2.5,3.1,3.3,5c0.8,1.9,1.2,4,1.2,6.3l-29.4-0.1
				C-768.1,1090.6-767.6,1088.6-766.8,1086.6z"/>
			<path class="st1" d="M-1142.2,1163.9l-37.1,78.7h6.5l12.2-25.7h33l11.8,25.7h13.1l-36.2-78.7H-1142.2z M-1158.4,1212l14.4-30.4
				l14,30.4H-1158.4z"/>
			<polygon class="st1" points="-1003.7,1228.2 -1024.7,1183.3 -1037.1,1183.3 -1009.1,1243.3 -1004.9,1243.3 -978.2,1183.3 
				-983.6,1183.3 			"/>
			<path class="st1" d="M-961.1,1154.6c-0.6-0.5-1.3-1-2.2-1.3c-0.8-0.3-1.7-0.5-2.6-0.5c-0.9,0-1.8,0.2-2.6,0.5
				c-0.8,0.3-1.5,0.7-2.1,1.3c-0.6,0.5-1.1,1.2-1.5,1.9c-0.4,0.7-0.6,1.5-0.6,2.3c0,0.8,0.2,1.6,0.6,2.3c0.4,0.7,0.9,1.3,1.5,1.9
				c0.6,0.5,1.3,1,2.1,1.3c0.8,0.3,1.7,0.5,2.6,0.5c0.9,0,1.8-0.2,2.6-0.5c0.8-0.3,1.5-0.7,2.2-1.3c0.6-0.5,1.1-1.2,1.5-1.9
				c0.4-0.7,0.6-1.5,0.6-2.3c0-0.8-0.2-1.6-0.6-2.3C-960,1155.8-960.5,1155.2-961.1,1154.6z"/>
			<polygon class="st1" points="-971.6,1185.4 -971.6,1242.6 -959.9,1242.6 -959.9,1182.1 -963.3,1182.1 			"/>
			<path class="st1" d="M-910.4,1214.6c-1.6-1.4-3.5-2.7-5.5-3.7c-2.1-1.1-4.2-2.1-6.4-3c-2.2-0.9-4.3-1.9-6.4-2.8
				c-2.1-0.9-3.9-1.9-5.5-3c-1.6-1.1-2.9-2.3-3.9-3.6c-1-1.3-1.5-2.9-1.5-4.6c0-1.1,0.3-2.1,0.8-3c0.6-1,1.3-1.8,2.3-2.5
				c1-0.7,2.2-1.3,3.6-1.7c1.4-0.4,2.9-0.6,4.6-0.6c3.2,0,6.1,0.9,8.9,2.7c2.8,1.8,5.3,4.5,7.5,8.2l4.3-3.9
				c-1.8-2.3-3.5-4.2-5.1-5.6c-1.6-1.4-3.3-2.5-4.9-3.3c-1.6-0.8-3.3-1.3-5.1-1.6c-1.7-0.3-3.6-0.4-5.5-0.4c-2.9,0-5.7,0.4-8.1,1.2
				c-2.5,0.8-4.6,2-6.4,3.5c-1.8,1.5-3.2,3.2-4.2,5.2c-1,2-1.5,4.2-1.5,6.6c0,2.5,0.5,4.7,1.4,6.6c0.9,1.9,2.1,3.5,3.6,4.9
				c1.5,1.4,3.2,2.7,5.1,3.8c1.9,1.1,3.9,2.1,5.8,3c2,0.9,3.9,1.9,5.8,2.7c1.9,0.9,3.6,1.9,5.1,3c1.5,1.1,2.7,2.3,3.6,3.6
				c0.9,1.3,1.4,2.9,1.4,4.7c0,1.1-0.3,2.2-0.8,3.3c-0.6,1.1-1.3,2-2.3,2.8c-1,0.8-2.1,1.5-3.5,2c-1.4,0.5-2.9,0.7-4.5,0.7
				c-1.7,0-3.3-0.2-4.7-0.6c-1.5-0.4-2.9-1.1-4.2-2c-1.3-0.9-2.7-2.1-4-3.5c-1.3-1.4-2.7-3.1-4.1-5.2l-4.8,4.4
				c1.8,2.3,3.6,4.2,5.4,5.6c1.9,1.4,3.7,2.6,5.6,3.3c1.9,0.8,3.7,1.3,5.5,1.6c1.8,0.3,3.6,0.4,5.3,0.4c3.8,0,7.1-0.5,10-1.4
				c2.9-0.9,5.2-2.2,7.1-3.8s3.3-3.5,4.2-5.7c0.9-2.2,1.4-4.5,1.4-7c0-2.5-0.5-4.6-1.5-6.5C-907.5,1217.6-908.8,1216-910.4,1214.6z"
				/>
			<path class="st1" d="M-842.9,1190.6c-2.8-2.6-6.1-4.7-9.9-6.2c-3.8-1.5-8-2.3-12.5-2.3c-4.5,0-8.7,0.8-12.6,2.5
				c-3.8,1.7-7.2,3.9-9.9,6.8c-2.8,2.9-5,6.2-6.5,10.1c-1.6,3.8-2.3,8-2.3,12.3c0,4.2,0.8,8.1,2.3,11.7c1.6,3.7,3.7,6.9,6.5,9.6
				c2.8,2.7,6.1,4.9,9.9,6.5c3.8,1.6,8,2.4,12.6,2.4c4.5,0,8.7-0.9,12.5-2.6c3.8-1.7,7.1-4.1,9.9-7c2.8-3,5-6.4,6.5-10.4
				c1.6-4,2.3-8.2,2.3-12.7c0-4.1-0.8-7.9-2.3-11.4C-838,1196.3-840.2,1193.2-842.9,1190.6z M-848.5,1225.9c-0.8,2.7-1.9,5-3.3,7
				c-1.4,2-3.1,3.6-5,4.8c-1.9,1.2-4.1,1.8-6.4,1.8c-3.2,0-6.1-0.8-8.6-2.5c-2.5-1.6-4.7-3.9-6.4-6.7c-1.7-2.8-3.1-6.1-4-9.9
				c-0.9-3.8-1.4-7.8-1.4-12.2c0-3,0.4-5.8,1.3-8.5c0.8-2.7,2-5,3.4-7c1.4-2,3-3.6,4.9-4.7c1.8-1.1,3.8-1.7,5.7-1.7
				c3.9,0,7.1,0.8,9.8,2.4c2.7,1.6,4.8,3.8,6.5,6.6c1.7,2.8,2.9,6.1,3.6,9.8c0.7,3.7,1.1,7.8,1.1,12.1
				C-847.3,1220.4-847.7,1223.2-848.5,1225.9z"/>
			<path class="st1" d="M-788.7,1184.2c-0.8-0.6-1.8-1.2-2.9-1.5c-1.1-0.4-2.3-0.6-3.6-0.6c-1.6,0-3.1,0.3-4.7,1
				c-1.5,0.7-3,1.6-4.4,2.7c-1.4,1.1-2.8,2.5-4.1,4c-1.3,1.5-2.6,3.1-3.7,4.8v-11.2h-11.7v59.3h11.7v-41.1c0.8-1.3,1.6-2.5,2.4-3.7
				c0.8-1.1,1.6-2.1,2.4-2.9c0.8-0.8,1.6-1.5,2.4-1.9c0.8-0.5,1.6-0.7,2.3-0.7c1,0,1.8,0.1,2.5,0.4c0.7,0.3,1.3,0.6,2,0.9
				c0.6,0.4,1.4,0.7,2.2,0.9c0.8,0.3,1.9,0.4,3.2,0.4c2.1,0,3.8-0.5,5-1.5c1.2-1,1.8-2.4,1.8-4.3c0-1-0.2-1.9-0.7-2.7
				C-787.2,1185.6-787.9,1184.8-788.7,1184.2z"/>
			<path class="st1" d="M-749.2,1226.2l-22.9-42.8h-13.4l30.4,56.5l-4,8.9c-0.5,1.1-1,2.2-1.6,3.5c-0.6,1.3-1.3,2.4-2,3.5
				s-1.6,1.9-2.6,2.6c-1,0.7-2,1-3.3,1c-1.1,0-2-0.1-2.7-0.4c-0.7-0.3-1.3-0.6-1.9-0.9c-0.6-0.4-1.2-0.7-2-0.9
				c-0.7-0.3-1.7-0.4-3-0.4c-1.1,0-2,0.2-2.9,0.6c-0.9,0.4-1.6,0.8-2.2,1.4c-0.6,0.6-1.1,1.3-1.4,2.1c-0.3,0.8-0.5,1.6-0.5,2.4
				c0,1,0.2,1.9,0.7,2.8c0.5,0.8,1.2,1.6,2,2.2c0.9,0.6,1.9,1.1,3,1.4c1.2,0.3,2.4,0.5,3.7,0.5c1.9,0,3.8-0.3,5.7-1
				c2-0.7,3.9-1.7,5.7-3.1c1.9-1.4,3.6-3.1,5.3-5.3c1.7-2.1,3.1-4.7,4.4-7.6l30.3-69.7h-6.3L-749.2,1226.2z"/>
		</g>
	</g>
</g>
</svg>
