<?xml version="1.0" encoding="utf-8"?>
<!-- Generator: Adobe Illustrator 16.0.4, SVG Export Plug-In . SVG Version: 6.00 Build 0)  -->
<!DOCTYPE svg PUBLIC "-//W3C//DTD SVG 1.1 Tiny//EN" "http://www.w3.org/Graphics/SVG/1.1/DTD/svg11-tiny.dtd">
<svg version="1.1" baseProfile="tiny" id="Layer_1" xmlns="http://www.w3.org/2000/svg" xmlns:xlink="http://www.w3.org/1999/xlink"
	 x="0px" y="0px" width="337.94px" height="73.57px" viewBox="0 0 337.94 73.57" xml:space="preserve">
<g>
	<path fill="#FFFFFF" d="M49.274,8.098c-1.573-0.315-3.315-0.205-4.811-0.288c-2.547-0.152-5.091-0.271-7.643-0.348
		c-0.366-0.007-3.977-0.093-3.977-0.071c0,0.003,0,59.671,0,59.671c0.615,1.885,3.057,3.737,4.716,4.68H17.448
		c1.764-0.942,3.452-2.066,4.393-4.68V7.391c-5.061,0-9.61,0.273-14.664,0.456C5.449,7.92,3.911,8.26,2.626,9.472
		c-1.129,1.055-1.965,2.395-2.717,3.73V1.074h54.663L54.55,13.203c-0.935-1.494-1.676-3.262-3.175-4.27
		C50.747,8.504,50.029,8.252,49.274,8.098z"/>
	<g>
		<path fill="#FFFFFF" d="M108.567,71.854c-4.053,0.105-6.962-2.703-8.523-4.883C94.745,59.182,91,53.275,87.369,47.457
			c-2.705-4.155-4.883-8.621-10.287-8.621c-1.873,0-6.028,0-6.028,0v28.135c0,2.285,1.35,3.744,2.908,4.676H57.45
			c1.562-0.932,2.808-2.391,2.808-4.676V5.66c0-2.394-1.247-3.846-2.808-4.678h20.564c20.783,0,25.254,10.811,25.254,17.351
			c0,11.229-9.98,16.947-16.418,17.458c5.609,1.145,8.517,5.512,10.077,7.804c0,0,11.118,19.019,15.589,23.892
			c2.284,2.496,6.651,4.16,6.651,4.16L108.567,71.854z M78.845,5.136c-4.672,0-7.792,0.323-7.792,0.323v28.572
			c0,0,3.328,0.21,6.028,0.21c7.897,0,15.691-4.68,15.691-15.595C92.773,13.766,89.861,5.136,78.845,5.136z"/>
		<path fill="#FFFFFF" d="M159.344,71.646h-42.287c1.869-0.932,3.115-2.182,3.115-4.676V5.66c0-2.394-1.246-3.846-2.909-4.678
			h39.587l0.207,8.101c-2.076-2.386-4.258-3.624-8.728-3.624c-1.976,0-17.872-0.217-17.872-0.217v25.043h16.941
			c1.452,0,3.115-1.662,3.631-2.904v10.072c-0.516-1.242-2.179-2.906-3.631-2.906h-16.941V66.56
			c2.287,0.204,7.171,0.622,12.059,0.622c11.218-0.107,15.166,0,19.012-6.555L159.344,71.646z"/>
		<path fill="#FFFFFF" d="M221.438,5.66v67.955c0,0-47.557-60.058-47.557-61.1v54.455c0,2.285,1.035,3.744,2.907,4.676h-12.402
			c1.56-0.932,2.708-2.391,2.708-4.676V9.602c0-3.005,0-3.21-1.25-4.875c-1.142-1.246-2.389-2.706-4.781-3.744h15.368l38.114,48.035
			V5.66c0-2.394-1.143-3.846-2.701-4.678h12.398C222.581,1.814,221.438,3.266,221.438,5.66z"/>
		<path fill="#FFFFFF" d="M251.342,71.646h-24.418c1.66-0.932,2.704-2.391,2.704-4.676V5.66c0-2.394-1.044-3.846-2.704-4.678h26.39
			c34.497,0,39.904,25.151,39.904,34.187C293.218,51.795,280.955,71.646,251.342,71.646z M253.313,5.459
			c-3.843,0-10.911-0.217-13.196,0.201v61.311c3.739,0.211,8.629,0.211,11.742,0.211c23.696,0,30.553-16.531,30.553-32.013
			C282.412,22.288,274.825,5.459,253.313,5.459z"/>
		<path fill="#FFFFFF" d="M314.884,72.581c-9.041,0-15.484-3.634-19.327-5.817l-0.312-15.596c2.185,7.482,7.793,17.052,18.91,17.052
			c11.224,0,14.133-8.834,14.133-13.929c0-9.977-7.584-12.05-17.561-17.04c-10.08-5.089-15.17-10.292-15.17-18.81
			c0-12.465,11.637-18.394,21.512-18.394c3.843,0,9.972,0.731,14.859,3.952l0.52,13.712c-1.249-4.986-7.069-13.502-16.834-13.502
			c-8.84,0-11.536,6.539-11.536,11.011c0,6.542,4.152,8.934,14.131,13.928c9.978,4.982,19.641,8.306,19.641,22.229
			C337.849,64.379,326.002,72.581,314.884,72.581z"/>
	</g>
</g>
</svg>
